<svg width="0" height="0" fill="none" style="visibility: hidden; position: absolute;" aria-hidden="true">
    <symbol id="cardFavorite" xmlns="http://www.w3.org/2000/svg" width="32" height="32" viewBox="0 0 32 32" fill="none">
        <rect width="32" height="32" rx="7" fill="#FEF0F0" />
        <path
            d="M22.5849 12.2231C22.3615 11.7098 22.0394 11.2446 21.6365 10.8537C21.2333 10.4615 20.758 10.1499 20.2363 9.93576C19.6954 9.7128 19.1152 9.59868 18.5295 9.60002C17.7077 9.60002 16.906 9.82329 16.2092 10.245C16.0425 10.3459 15.8842 10.4567 15.7342 10.5775C15.5841 10.4567 15.4258 10.3459 15.2591 10.245C14.5624 9.82329 13.7606 9.60002 12.9388 9.60002C12.3471 9.60002 11.7737 9.71248 11.232 9.93576C10.7086 10.1508 10.2369 10.46 9.83181 10.8537C9.42843 11.2442 9.10619 11.7095 8.88337 12.2231C8.65168 12.7573 8.53333 13.3246 8.53333 13.9084C8.53333 14.4592 8.64668 15.0331 8.8717 15.6169C9.06006 16.1048 9.33009 16.6109 9.67513 17.122C10.2219 17.9307 10.9736 18.7742 11.9071 19.6293C13.4539 21.0467 14.9857 22.0258 15.0507 22.0655L15.4458 22.3169C15.6208 22.4277 15.8458 22.4277 16.0209 22.3169L16.4159 22.0655C16.4809 22.0242 18.0111 21.0467 19.5596 19.6293C20.493 18.7742 21.2448 17.9307 21.7915 17.122C22.1366 16.6109 22.4083 16.1048 22.5949 15.6169C22.82 15.0331 22.9333 14.4592 22.9333 13.9084C22.935 13.3246 22.8166 12.7573 22.5849 12.2231Z"
            fill="#FF8585" />
    </symbol>
    <symbol version="1.1" id="cardChecked" xmlns="http://www.w3.org/2000/svg" xmlns:xlink="http://www.w3.org/1999/xlink"
        xml:space="preserve" fill="#9CDD05" viewBox="0 0 512 512">
        <g id="SVGRepo_bgCarrier" stroke-width="0"></g>
        <g id="SVGRepo_tracerCarrier" stroke-linecap="round" stroke-linejoin="round"></g>
        <g id="SVGRepo_iconCarrier">
            <path
                d="M488.727,0H256H23.273C10.42,0,0,10.418,0,23.273v465.455C0,501.58,10.42,512,23.273,512H256h232.727 C501.58,512,512,501.58,512,488.727V23.273C512,10.418,501.58,0,488.727,0z">
            </path>
            <path
                d="M201.675,377.665c-4.364,4.364-10.283,6.816-16.455,6.816c-6.173,0-12.093-2.453-16.457-6.816 l-68.856-68.858c-9.089-9.089-9.089-23.824,0-32.912c9.087-9.089,23.824-9.087,32.912,0l52.401,52.401l70.78-70.78V0H23.273 C10.42,0,0,10.418,0,23.273v465.455C0,501.58,10.42,512,23.273,512H256V323.34L201.675,377.665z">
            </path>
            <path fill="#fff"
                d="M412.092,134.333c-9.087-9.089-23.824-9.087-32.912,0L256,257.516l-70.78,70.782l-52.401-52.401 c-9.087-9.087-23.824-9.089-32.912,0s-9.089,23.823,0,32.912l68.856,68.858c4.364,4.364,10.283,6.816,16.457,6.816 c6.172,0,12.092-2.453,16.455-6.816L256,323.34l156.092-156.093C421.182,158.158,421.182,143.422,412.092,134.333z">
            </path>
        </g>
    </symbol>
    <symbol id="cardUnChecked" width="32" height="32" viewBox="0 0 32 32" fill="none"
        xmlns="http://www.w3.org/2000/svg">
        <rect x="0.5" y="0.5" width="31" height="31" rx="7.5" fill="white" stroke="#F2F2F2" />
        <path
            d="M20.6653 15.1312H17.2021V11.6682C17.2021 10.3328 15.1311 10.3328 15.1311 11.6682V15.1312H11.668C10.3329 15.1312 10.3329 17.2022 11.668 17.2022H15.1311V20.6652C15.1311 22.0005 17.2021 22.0005 17.2021 20.6652V17.2022H20.6653C22.0005 17.2022 22.0005 15.1312 20.6653 15.1312Z"
            fill="#D3D3D3" />
    </symbol>
    <symbol id="cartIconRemove" width="31" height="31" viewBox="0 0 32 32" fill="none"
        xmlns="http://www.w3.org/2000/svg">
        <rect x="0.5" y="0.5" width="31" height="31" rx="7.5" fill="white" stroke="#DBDBDB" />
        <path
            d="M20.0799 18.6155L17.6311 16.1667L20.0798 13.718C21.0241 12.7738 19.5596 11.3093 18.6154 12.2536L16.1667 14.7023L13.7179 12.2535C12.7738 11.3095 11.3095 12.7738 12.2535 13.7179L14.7023 16.1667L12.2536 18.6154C11.3093 19.5596 12.7738 21.0241 13.718 20.0798L16.1667 17.6311L18.6155 20.0799C19.5597 21.0241 21.0241 19.5597 20.0799 18.6155Z"
            fill="#B5B5B5" />
    </symbol>
    <symbol id="checkoutBtnArrow" width="31" height="31" viewBox="0 0 32 32" fill="none"
        xmlns="http://www.w3.org/2000/svg">
        <path d="M1 7H14.7143" stroke="white" stroke-width="2" stroke-linecap="round" stroke-linejoin="round" />
        <path d="M8.71436 1L14.7144 7L8.71436 13" stroke="white" stroke-width="2" stroke-linecap="round"
            stroke-linejoin="round" />
    </symbol>
</svg>